<svg width="50" height="50" viewBox="0 0 50 50" fill="none" xmlns="http://www.w3.org/2000/svg">
<g clip-path="url(#clip0_1419_4749)">
<path d="M24.972 0.27478C11.332 0.27478 0.274719 11.5076 0.274719 25.3639C0.274719 37.0649 8.15973 46.8944 18.8262 49.6693C18.8191 46.7699 18.8097 43.2134 18.8043 42.1054C11.6772 43.68 10.1734 39.0347 10.1734 39.0347C9.00822 36.0265 7.32881 35.2263 7.32881 35.2263C5.00397 33.6111 7.50388 33.6441 7.50388 33.6441C10.0762 33.8274 11.4313 36.3262 11.4313 36.3262C13.7161 40.3047 17.4245 39.1543 18.8866 38.4897C19.1165 36.8081 19.7801 35.6594 20.5133 35.0096C14.8231 34.3515 8.84083 32.12 8.84083 22.1478C8.84083 19.3065 9.84189 16.9849 11.4807 15.1623C11.2145 14.5064 10.3375 11.8594 11.7288 8.2745C11.7288 8.2745 13.8802 7.57529 18.7757 10.9424C20.8196 10.3655 23.011 10.0763 25.1882 10.0664C27.3654 10.0763 29.5585 10.3655 31.6062 10.9424C36.4963 7.57529 38.6444 8.2745 38.6444 8.2745C40.039 11.8594 39.1619 14.5064 38.8958 15.1623C40.5384 16.9849 41.5323 19.3065 41.5323 22.1478C41.5323 32.1441 35.5391 34.3444 29.8341 34.9893C30.7528 35.7971 31.5716 37.3805 31.5716 39.8085C31.5716 41.7365 31.5629 46.1755 31.5546 49.5447C41.9972 46.6173 49.6693 36.9036 49.6693 25.3639C49.6693 11.5076 38.612 0.27478 24.972 0.27478Z" fill="black"/>
</g>
<defs>
<clipPath id="clip0_1419_4749">
<rect width="50" height="50" fill="white"/>
</clipPath>
</defs>
</svg>
